<svg id="Capa_1" enable-background="new 0 0 511.384 511.384" height="512" viewBox="0 0 511.384 511.384" width="512" xmlns="http://www.w3.org/2000/svg"><g><g><path d="m378.918 250.313h-26.177v-57.406h33.464c7.841 0 14.197 6.356 14.197 14.197v21.726c0 11.865-9.619 21.483-21.484 21.483z" fill="#ffcebf"/><path d="m368.741 153.514v-62.548c0-32.407-26.271-58.678-58.678-58.678h-99.872l-10.158-18.969c-3.666-6.847-13.075-7.854-18.108-1.939-25.48 29.95-39.472 67.989-39.472 107.312v34.822l22.985 44.882h184.513z" fill="#baafb9"/><path d="m185.696 118.692c0-30.714 8.537-60.646 24.417-86.551l-10.079-18.822c-3.666-6.847-13.075-7.854-18.108-1.938-25.48 29.95-39.472 67.989-39.472 107.312v34.822l22.985 44.882h43.243l-22.985-44.882v-34.823z" fill="#aa9ea9"/><path d="m132.276 250.313h25.177v-57.406h-32.464c-7.841 0-14.197 6.356-14.197 14.197v21.726c.001 11.865 9.619 21.483 21.484 21.483z" fill="#ffb09e"/><path d="m295.49 386.165 98.57 50.415c18 9.206 29.325 27.72 29.325 47.937v12.234c0 3.94-3.194 7.134-7.134 7.134h-321.118c-3.94 0-7.134-3.194-7.134-7.134v-12.234c0-20.217 11.326-38.731 29.325-47.937l98.57-50.415 19.705-9.469h41.126z" fill="#c8effe"/><path d="m243.053 376.696h-7.454l-19.704 9.469-98.57 50.415c-18 9.207-29.325 27.72-29.325 47.937v12.234c0 3.94 3.194 7.134 7.134 7.134h36.03c.346-19.849 11.589-37.934 29.309-46.997l82.581-42.237v-37.955z" fill="#99e6fc"/><g id="XMLID_653_"><g><path d="m295.487 386.166c0 20.76-16.83 37.59-37.59 37.59h-4.41c-20.76 0-37.59-16.83-37.59-37.59v-59.62h79.59z" fill="#ffdfcf"/></g></g><path d="m368.737 188.113v-34.597c-75.38-29.11-150.81-29.07-226.28 0v37.57l2.121 6.063v17.681l-2.121.314v40.722c0 22.97 5.92 44.71 16.4 63.67l20.61 27.88c9.82 10.16 21.29 18.78 34.02 25.39s26.73 11.23 41.61 13.41l.84-.12c29.93-4.35 56.28-18.55 75.98-39.03l18.98-25.15c11.38-19.54 17.84-42.2 17.84-66.19v-40.582l-1.802.067v-19.923z" fill="#ffdfcf"/><g><path d="m361.212 239.648c-3.407-10.261-11.71-17.98-22.226-20.654-27.578-6.979-55.668-10.517-83.49-10.517-16.298 0-32.76 1.218-49.229 3.63-10.855 1.589-20.569-6.901-20.569-17.872v-54.191c-14.413 3.434-28.827 7.919-43.243 13.471v37.57l2.121 6.063v17.681l-2.121.314v40.722c0 22.97 5.92 44.71 16.4 63.67l20.61 27.88c9.82 10.16 21.29 18.78 34.02 25.39s26.73 11.23 41.61 13.41l.84-.12c17.826-2.591 34.379-8.694 49.019-17.523.016-.003.032-.005.048-.008 9.92-5.986 18.959-13.23 26.913-21.499l18.98-25.15c9.309-15.984 15.32-34.056 17.201-53.236-1.376-9.644-3.669-19.329-6.884-29.031z" fill="#ffcebf"/><g id="XMLID_595_"><g><path d="m346.977 244.376c10.17 30.7 10.38 61.06-.06 91.08-1.74 5.03-5.83 8.93-10.93 10.44-53.9 16.04-107.8 16.05-161.7.03-5.15-1.53-9.24-5.48-10.97-10.55-10.35-30.35-10.4-60.7-.15-91.04 1.8-5.34 6.23-9.39 11.69-10.75 53.7-13.41 107.18-13.53 160.45-.05 5.47 1.39 9.89 5.48 11.67 10.84z" fill="#b0e7c9"/></g></g><path d="m207.06 345.35c-10.35-36.551-10.4-73.101-.15-109.64 1.051-3.753 3.018-6.983 5.543-9.343-12.515 1.678-25.057 4.087-37.596 7.218-5.46 1.36-9.89 5.41-11.69 10.75-10.25 30.34-10.2 60.69.15 91.04 1.73 5.07 5.82 9.02 10.97 10.55 12.735 3.785 25.492 6.679 38.228 8.674-2.479-2.358-4.41-5.562-5.455-9.249z" fill="#91deb6"/></g></g><g><path d="m378.919 257.814c15.981 0 28.983-13.002 28.983-28.984v-21.726c0-11.963-9.733-21.696-21.697-21.696h-9.964v-94.442c0-36.49-29.687-66.178-66.178-66.178h-95.38l-8.038-15.011c-2.894-5.403-8.26-9.019-14.354-9.671-6.102-.656-12.105 1.745-16.078 6.413-19.638 23.083-32.916 51.047-38.4 80.869-.749 4.074 1.946 7.983 6.02 8.732 4.073.754 7.984-1.945 8.733-6.02 5.008-27.239 17.136-52.78 35.072-73.861 1.049-1.233 2.365-1.29 3.056-1.22.691.074 1.964.411 2.728 1.838l10.158 18.97c1.306 2.438 3.847 3.96 6.612 3.96h99.872c28.219 0 51.178 22.958 51.178 51.178v51.81c-70.086-24.629-141.062-24.627-211.287.009v-22.157c0-4.143-3.358-7.5-7.5-7.5s-7.5 3.357-7.5 7.5v64.78h-9.964c-11.964 0-21.697 9.733-21.697 21.696v21.726c0 15.982 13.002 28.984 28.983 28.984h2.708c.317 22.472 6.099 44.662 16.791 64.375 1.194 5.21 2.67 10.413 4.439 15.603 2.513 7.374 8.468 13.101 15.933 15.321 1.133.337 2.268.656 3.401.979 9.825 9.88 20.862 18.102 32.845 24.531v2.955l-94.485 48.326c-20.608 10.541-33.41 31.468-33.41 54.614v19.367c0 4.143 3.358 7.5 7.5 7.5s7.5-3.357 7.5-7.5v-19.367c0-17.486 9.671-33.296 25.24-41.259l89.146-45.595c5.097 19.31 22.709 33.592 43.599 33.592h4.417c20.89 0 38.502-14.282 43.599-33.592l38.942 19.917c1.093.559 2.26.824 3.409.824 2.727 0 5.356-1.492 6.683-4.087 1.886-3.688.426-8.206-3.262-10.093l-44.281-22.648v-3.167c12.007-6.465 23.061-14.739 32.896-24.676.747-.216 1.494-.423 2.24-.646 7.406-2.203 13.342-7.875 15.879-15.172 1.52-4.372 2.82-8.766 3.914-13.18 11.636-20.365 17.933-43.434 18.287-66.922h2.712zm7.286-57.407c3.692 0 6.697 3.004 6.697 6.696v21.726c0 7.711-6.273 13.984-13.983 13.984h-2.678v-42.406zm-236.251-41.705c35.144-12.941 70.668-19.501 105.676-19.505h.03c35.012 0 70.51 6.56 105.582 19.501v41.427l-20.485 27.375c-1.161-.497-2.364-.917-3.614-1.234-54.019-13.674-109.229-13.661-164.099.038-.97.242-1.915.543-2.832.895l-20.258-27.074zm169.167 110.064c9.015.435 17.876.953 26.453 1.538 2.085 13.545 2.065 26.984-.06 40.236-59.997 4.802-120.736 4.807-180.735.008-2.187-13.381-2.274-26.804-.261-40.188 40.905-2.78 82.19-3.716 122.822-2.742 4.167.08 7.579-3.177 7.678-7.318s-3.177-7.578-7.318-7.678c-39.691-.953-79.998-.099-119.976 2.493.757-2.797 1.603-5.592 2.545-8.382.972-2.879 3.428-5.13 6.409-5.875 26.256-6.555 52.584-9.831 78.811-9.831 26.156 0 52.212 3.261 77.974 9.781 2.983.755 5.434 3.026 6.394 5.927.92 2.777 1.752 5.551 2.497 8.322-7.348-.476-14.873-.905-22.51-1.273-4.136-.204-7.653 2.992-7.853 7.13-.2 4.137 2.992 7.653 7.13 7.852zm-200.828-39.937v-21.726c0-3.692 3.004-6.696 6.697-6.696h9.964v42.406h-2.678c-7.71.001-13.983-6.273-13.983-13.984zm31.661-3.667 8.621 11.522c-1.034 1.622-1.886 3.378-2.518 5.251-2.188 6.483-5.661 21.853-5.79 22.582-.202-2.875-.313-39.355-.313-39.355zm138.036 161.003c0 16.592-13.498 30.09-30.09 30.09h-4.417c-16.592 0-30.09-13.498-30.09-30.09v-.626c9.759 3.805 19.997 6.544 30.616 8.1.36.053 3.001-.12 3.001-.12 10.747-1.561 21.115-4.308 30.979-8.169v.815zm-32.872-7.529c-16.66-2.584-32.279-8.379-46.263-17.059 15.392 2.534 30.817 3.805 46.242 3.805 15.776 0 31.553-1.33 47.293-3.98-14.263 8.865-30.229 14.723-47.272 17.234zm78.731-39.925c-52.23 15.539-105.196 15.546-157.427.023-2.814-.837-5.061-2.999-6.009-5.782-.806-2.365-1.539-4.732-2.212-7.102 28.86 2.192 57.872 3.31 86.896 3.31 29.052 0 58.11-1.117 87.001-3.313-.685 2.388-1.435 4.77-2.26 7.143-.957 2.751-3.196 4.89-5.989 5.721zm26.686-69.876c-.341-2.292-1.257-7.257-1.303-7.44-1.286-6.445-2.993-12.906-5.136-19.376-.532-1.607-1.23-3.127-2.06-4.555l9.205-12.302s-.244 39.328-.706 43.673z"/><path d="m397.475 429.902-21.641-11.068c-3.687-1.884-8.207-.426-10.092 3.263-1.886 3.688-.426 8.206 3.262 10.093l21.64 11.067c15.569 7.964 25.241 23.774 25.241 41.261v19.367c0 4.143 3.358 7.5 7.5 7.5s7.5-3.357 7.5-7.5v-19.367c0-23.148-12.801-44.074-33.41-54.616z"/></g></g></svg>