<svg id="Capa_1" enable-background="new 0 0 512 512" height="512" viewBox="0 0 512 512" width="512" xmlns="http://www.w3.org/2000/svg"><g><path d="m140.572 94.528v-54.161c0-22.294 18.073-40.367 40.367-40.367h147.408c22.294 0 40.367 18.073 40.367 40.367v54.161z" fill="#b3dafe"/><path d="m368.718 40.363v51.879h-20.84v-51.879c0-22.292-18.081-40.363-40.373-40.363h20.84c22.292 0 40.373 18.071 40.373 40.363z" fill="#8ac9fe"/><path d="m433.674 508.713h-353.964c-.28-4.801-.28-6.215-.06-10.767 1.847-38.767 19.436-73.055 48.971-98.238 36.927-31.498 75.478-43.538 82.663-45.463.713-.191 1.44-.31 2.168-.429 1.167-.19 2.756-.351 3.97-1.243 1.269-.932 2.137-2.591 2.137-2.591 10.989-7.676 8.834-29.345 8.834-29.345h55.217s-2.156 21.669 8.833 29.345c1.696 1.198 2.86 3.077 5.246 3.465.728.118 2.635.925 3.348 1.116 7.186 1.925 45.493 13.14 82.42 44.637 29.535 25.183 48.43 59.977 50.277 98.745.22 4.553.22 5.967-.06 10.768z" fill="#883f2e"/><path d="m433.783 512h-149.641l-3.144-2.216h-50.142l-2.995 2.216h-150.755c-.28-4.801-.28-9.502-.06-14.054 1.847-38.767 20.432-74.72 49.966-99.903 11.251-9.597 22.804-17.363 33.632-23.577.555-.319 3.438.198 3.989-.112 23.972-13.501 41.754-18.797 46.65-20.109.717-.192 4.95-1.084 5.769-1.369.753-.262.493-1.69 1.159-2.054.47-.257.919-.537 1.348-.84 1.723 9.797 6.268 21.531 17.675 28.799 11.384 7.253 26.15 7.253 37.533 0 11.408-7.268 15.952-19.002 17.675-28.799 1.696 1.198 3.067 3.386 5.453 3.774.728.118 1.456.238 2.168.429 7.186 1.925 46.466 13.518 83.392 45.016 29.535 25.183 48.539 59.977 50.386 98.745.221 4.552.221 9.253-.058 14.054z" fill="#b3dafe"/><path d="m434.894 511.998h-22.858c0-2.275-.051-4.52-.154-6.734-1.853-38.777-20.439-74.722-49.969-99.908-27.955-23.836-57.764-36.378-73.713-41.897 2.193-4.51 3.491-9.174 4.242-13.478 1.694 1.199 3.712 2.05 6.095 2.437.73.119 1.46.238 2.174.43 7.193 1.927 47.355 13.698 84.276 45.197 29.541 25.185 48.126 61.131 49.969 99.897.216 4.552.216 9.257-.062 14.056z" fill="#8ac9fe"/><path d="m351.358 374.466-50.356 45.921c-10.74 9.794-16.86 23.658-16.86 38.193v53.418h-56.281v-53.418c0-14.535-6.12-28.399-16.86-38.193l-50.356-45.921c8.069-4.632 16.409-8.794 24.96-12.461 6.026-2.585 12.16-4.933 18.394-6.967 1.536-.501 3.078-.983 4.628-1.438 2.803-.824 5.705-1.128 8.425-2.253.285-.118 2.245-1.086 2.51-1.365 1.689 9.596 6.075 21.046 16.969 28.336 11.707 7.846 27.234 7.846 38.942 0 10.894-7.29 15.28-18.74 16.969-28.336 1.694 1.199 3.712 2.05 6.094 2.437.749.122 1.492.246 2.225.443 5.089 1.365 25.97 7.468 50.597 21.604z" fill="#d8ecfe"/><path d="m351.358 374.466-14.034 12.789c-19.605-12.459-37.84-19.893-49.125-23.796.278-.566.535-1.133.783-1.699 1.073-2.459 1.928-5.046 2.58-7.638.221-.878.393-1.765.591-2.648.113-.505.206-.999.288-1.493 2.872 2.032 6.023 2.279 9.273 3.142 3.854 1.023 7.638 2.328 11.392 3.664 5.9 2.101 13.416 5.076 21.87 9.102 2.29 1.091 4.563 2.219 6.827 3.377 2.275 1.164 4.494 2.364 6.744 3.614.927.515 1.864 1.04 2.811 1.586z" fill="#c4e2ff"/><g fill="#883f2e"><path d="m145.573 211.392h-4.959c-14.956 0-27.08-12.124-27.08-27.08 0-14.956 12.124-27.08 27.08-27.08h4.959z"/><path d="m366.43 211.392h4.959c14.956 0 27.08-12.124 27.08-27.08 0-14.956-12.124-27.08-27.08-27.08h-4.959z"/></g><path d="m368.714 114.874v80.157l-2.173 8.92.174 11.823c0 3.841-.193 7.641-.569 11.38-2.662 26.58-15.518 47.979-33.4 65.861-20.392 20.393-45.611 33.151-76.744 33.151-28.715 0-51.343-11.59-70.251-27.869-19.556-16.837-34.951-38.847-37.849-67.776-.376-3.739 0-15.287 0-19.128l-2.328-7.441-2.284-8.92v-80.157h225.424z" fill="#bb5d4c"/><path d="m368.714 114.869.004 46.118v34.044l-2.178 7.569v16.303c-.11 4.888-.036 6.409-.803 12.837-3.165 26.53-14.978 44.824-32.863 62.699-20.387 20.398-45.736 33.612-76.873 33.612-3.47 0-6.909-.155-10.297-.474 27.029-2.43 51.287-14.415 69.399-32.537 17.885-17.875 29.788-41.732 32.444-68.318.381-3.738.577-7.537.577-11.378v-100.475z" fill="#a44f3e"/><g><g><path d="m209.932 203.951c-4.142 0-7.5-3.358-7.5-7.5v-13.853c0-4.142 3.358-7.5 7.5-7.5s7.5 3.358 7.5 7.5v13.853c0 4.142-3.358 7.5-7.5 7.5z" fill="#433f43"/></g><g><path d="m302.071 203.951c-4.142 0-7.5-3.358-7.5-7.5v-13.853c0-4.142 3.358-7.5 7.5-7.5s7.5 3.358 7.5 7.5v13.853c0 4.142-3.357 7.5-7.5 7.5z" fill="#433f43"/></g></g><path d="m368.714 195.031v20.311c0 3.841-.193 7.641-.569 11.38-2.662 26.58-14.56 50.438-32.443 68.32-20.392 20.393-48.568 33.012-79.7 33.012-58.414 0-106.443-44.433-112.143-101.332-.376-3.739-.569-7.539-.569-11.38v-20.311s23.296 35.484 84.455 45.176c18.713 2.966 37.801 2.966 56.514 0 61.159-9.692 84.455-45.176 84.455-45.176z" fill="#f5f8f9"/><path d="m368.718 195.028v20.315c0 3.841-.196 7.64-.577 11.378-2.656 26.586-14.559 50.443-32.444 68.318-20.387 20.398-48.559 33.011-79.696 33.011-3.46 0-6.85-.137-10.297-.474 27.029-2.43 51.287-14.415 69.399-32.537 17.885-17.875 29.788-41.732 32.444-68.318.381-3.738.577-7.537.577-11.378v-.401c14.396-10.472 20.594-19.914 20.594-19.914z" fill="#d9e7ec"/><path d="m371.431 125.277h-230.859c-5.662 0-10.252-4.59-10.252-10.252v-15.277c0-5.662 4.59-10.252 10.252-10.252h230.859c5.662 0 10.252 4.59 10.252 10.252v15.277c0 5.662-4.59 10.252-10.252 10.252z" fill="#d8ecfe"/><path d="m381.682 99.743v15.28c0 5.663-4.592 10.255-10.255 10.255h-20.027c5.663 0 10.255-4.592 10.255-10.255v-15.28c0-5.653-4.592-10.245-10.255-10.245h20.027c5.662 0 10.255 4.592 10.255 10.245z" fill="#c4e2ff"/><circle cx="256.002" cy="107.386" fill="#f5f8f9" r="40.627"/><path d="m296.632 107.383c0 22.436-18.194 40.63-40.63 40.63-15.095 0-28.274-8.237-35.286-20.47 5.941 3.388 12.819 5.324 20.14 5.324 22.436 0 40.63-18.184 40.63-40.63 0-7.321-1.946-14.199-5.344-20.14 12.242 7.002 20.49 20.181 20.49 35.286z" fill="#d9e7ec"/><circle cx="256.002" cy="107.386" fill="#fee45a" r="15.144"/></g></svg>