<svg id="Capa_1" enable-background="new 0 0 512 512" height="512" viewBox="0 0 512 512" width="512" xmlns="http://www.w3.org/2000/svg"><g><path d="m512 491.4v20.6h-309.857l-14.893-15-15.107 15h-73.286l-14.857-15-15.143 15h-68.857v-20.6c0-49.19 37.33-90.36 86.29-95.15l34.51-3.38 15.31 14.52 14.69-17.45 32.06-3.14h146.28l32.06 3.14 14.16 17.39 15.84-14.46 34.51 3.38c48.96 4.79 86.29 45.96 86.29 95.15z" fill="#edf9ff"/><path d="m512 491.4v20.6h-256v-125.2h73.14l32.06 3.14 14.16 17.39 15.84-14.46 34.51 3.38c48.96 4.79 86.29 45.96 86.29 95.15z" fill="#c0e1f0"/><path d="m392.66 136.66v41.36h-273.32v-41.36c0-75.48 61.19-136.66 136.66-136.66s136.66 61.18 136.66 136.66z" fill="#5c5655"/><path d="m392.66 136.66v41.36h-136.66v-178.02c75.47 0 136.66 61.18 136.66 136.66z" fill="#363331"/><path d="m329.14 314.08v72.53l-73.14 66.96-73.14-66.96v-72.53z" fill="#febda6"/><path d="m329.14 314.08v72.53l-73.14 66.96v-139.49z" fill="#ffac94"/><path d="m150.8 421.565v-31.625l-30 2.93v28.556c-29.695 6.714-51.943 33.293-51.943 64.989v25.585h30v-25.585c0-20.205 16.438-36.643 36.643-36.643s36.643 16.438 36.643 36.643v25.585h30v-25.585c0-31.481-21.949-57.915-51.343-64.85z" fill="#61b7ff"/><path d="m178.061 250.689h-36.313c-25.684 0-46.506-20.821-46.506-46.506 0-25.684 20.821-46.506 46.506-46.506h36.294z" fill="#febda6"/><path d="m333.958 157.677h36.294c25.685 0 46.506 20.821 46.506 46.506 0 25.684-20.821 46.506-46.506 46.506h-36.294z" fill="#ffac94"/><path d="m349.97 157.68v93.009l-93.97 15.79-93.97-15.79v-93.009c0-13.24 5.37-25.24 14.05-33.92s20.66-14.05 33.91-14.05c3.02 0 5.98.6 8.72 1.73 2.74 1.14 5.25 2.81 7.39 4.95 8.26 8.25 19.08 12.38 29.9 12.38s21.64-4.13 29.9-12.38c2.14-2.14 4.65-3.81 7.39-4.95 2.74-1.13 5.7-1.73 8.72-1.73 13.25 0 25.23 5.37 33.91 14.05s14.05 20.68 14.05 33.92z" fill="#ffcdc0"/><path d="m349.97 157.68v93.009l-93.97 15.79v-137.709c10.82 0 21.64-4.13 29.9-12.38 2.14-2.14 4.65-3.81 7.39-4.95 2.74-1.13 5.7-1.73 8.72-1.73 13.25 0 25.23 5.37 33.91 14.05s14.05 20.68 14.05 33.92z" fill="#febda6"/><path d="m391.2 432.568v-39.698l-30-2.93v42.628c-15.296 5.996-26.133 20.877-26.133 38.299 0 22.717 18.416 41.133 41.133 41.133s41.133-18.416 41.133-41.133c0-17.422-10.837-32.304-26.133-38.299z" fill="#4274d1"/><path d="m309.496 291.164s-29.729 60.086-53.496 60.086c-25.95 0-49.44-11.2-66.45-29.3-17-18.1-27.52-43.11-27.52-70.73v-.53h37.79c12.66 0 24.89-4.52 34.51-12.74l21.67-18.52z" fill="#edf9ff"/><path d="m349.97 250.69v.53c0 55.24-42.07 100.03-93.97 100.03v-131.82l21.67 18.52c9.62 8.22 21.85 12.74 34.51 12.74z" fill="#c0e1f0"/></g></svg>